<?xml version="1.0" encoding="UTF-8" standalone="no"?>
<svg width="11.2889mm" height="11.2889mm"
 viewBox="0 0 32 32"
 xmlns="http://www.w3.org/2000/svg" xmlns:xlink="http://www.w3.org/1999/xlink"  version="1.2" baseProfile="tiny">
<title>Qt SVG Document</title>
<desc>Generated with Qt</desc>
<defs>
</defs>
<g fill="none" stroke="black" stroke-width="1" fill-rule="evenodd" stroke-linecap="square" stroke-linejoin="bevel" >

<g fill="none" stroke="#000000" stroke-opacity="1" stroke-width="1" stroke-linecap="square" stroke-linejoin="bevel" transform="matrix(1,0,0,1,16,16)"
font-family="MS Shell Dlg 2" font-size="8.25" font-weight="400" font-style="normal" 
>
</g>

<g fill="none" stroke="#000000" stroke-opacity="1" stroke-width="1" stroke-linecap="square" stroke-linejoin="bevel" transform="matrix(1.33333,0,0,1.33333,16,16)"
font-family="MS Shell Dlg 2" font-size="8.25" font-weight="400" font-style="normal" 
>
</g>

<g fill="#692020" fill-opacity="1" stroke="none" transform="matrix(0.944882,0,0,0.944882,8.91339,8.91339)"
font-family="MS Shell Dlg 2" font-size="8.25" font-weight="400" font-style="normal" 
>
<path vector-effect="none" fill-rule="nonzero" d="M1.0819,9.9388 C0.9871,9.867 1.0007,9.7479 1.0007,9.7479 L1.5259,3.5 C1.5259,3.5 1.5341,3.4312 1.5647,3.396 C1.584,3.374 1.6084,3.342 1.6544,3.3232 C2.1826,3.1072 5.0537,1.5519 6.5,3 C6.7397,3.2777 6.9999,3.6876 6.9999,4 L6.9999,9.2879 C6.9999,9.2879 7.0061,9.4001 6.9046,9.468 C6.8807,9.484 6.7806,9.5296 6.6626,9.4706 C4.4373,8.3572 1.9516,9.6252 1.3245,9.9577 C1.1987,10.0244 1.1006,9.9531 1.0819,9.9388 M13.6754,9.9577 C13.0483,9.6252 10.5626,8.3572 8.3373,9.4706 C8.2193,9.5296 8.1192,9.484 8.0953,9.468 C7.9939,9.4001 8.0001,9.2879 8.0001,9.2879 L8.0001,4 C8.0001,3.6876 8.2603,3.2777 8.5,3 C9.9463,1.5519 12.7991,3.1071 13.3273,3.3232 C13.3733,3.342 13.3977,3.374 13.417,3.396 C13.4476,3.4312 13.4558,3.5 13.4558,3.5 L13.9993,9.7479 C13.9993,9.7479 14.0129,9.867 13.9181,9.9388 C13.8994,9.9531 13.8013,10.0244 13.6754,9.9577 M8.8647,12.6863 C8.8999,12.6778 8.9611,12.642 8.9826,12.6088 C9.0062,12.5724 9.0204,12.5471 9.0249,12.5 C9.0744,11.5621 10.6494,10.6881 13.6726,12.4702 C13.7501,12.5143 13.8392,12.5098 13.9151,12.4547 C14.0014,12.392 14,12.2859 14,12.2859 L14,11.7317 C14,11.7317 14.0003,11.6553 13.9728,11.6133 C13.9523,11.5821 13.9252,11.549 13.8802,11.5275 C11.8548,10.213 9.2944,9.6303 7.9948,11.3683 C7.9767,11.4106 7.9595,11.4296 7.922,11.4588 C7.8654,11.5028 7.7964,11.5 7.7964,11.5 L7.2109,11.5 C7.2109,11.5 7.1419,11.5028 7.0853,11.4588 C7.0478,11.4296 7.0306,11.4106 7.0125,11.3683 C5.7129,9.6303 3.1525,10.1855 1.1271,11.5 C1.0821,11.5215 1.055,11.5546 1.0345,11.5858 C1.007,11.6278 1.0073,11.7042 1.0073,11.7042 L1.0073,12.2584 C1.0073,12.2584 1.0059,12.3645 1.0922,12.4272 C1.1681,12.4823 1.2572,12.4868 1.3347,12.4427 C4.3579,10.6606 5.9329,11.5621 5.9824,12.5 C5.9869,12.5471 6.0011,12.5724 6.0247,12.6088 C6.0462,12.642 6.1074,12.6778 6.1426,12.6863 C6.8645,12.8656 7.9112,12.9363 8.8647,12.6863 "/>
</g>

<g fill="none" stroke="#000000" stroke-opacity="1" stroke-width="0.6" stroke-linecap="butt" stroke-linejoin="miter" stroke-miterlimit="4" transform="matrix(0.944882,0,0,0.944882,8.91339,8.91339)"
font-family="MS Shell Dlg 2" font-size="8.25" font-weight="400" font-style="normal" 
>
<path vector-effect="none" fill-rule="nonzero" d="M1.0819,9.9388 C0.9871,9.867 1.0007,9.7479 1.0007,9.7479 L1.5259,3.5 C1.5259,3.5 1.5341,3.4312 1.5647,3.396 C1.584,3.374 1.6084,3.342 1.6544,3.3232 C2.1826,3.1072 5.0537,1.5519 6.5,3 C6.7397,3.2777 6.9999,3.6876 6.9999,4 L6.9999,9.2879 C6.9999,9.2879 7.0061,9.4001 6.9046,9.468 C6.8807,9.484 6.7806,9.5296 6.6626,9.4706 C4.4373,8.3572 1.9516,9.6252 1.3245,9.9577 C1.1987,10.0244 1.1006,9.9531 1.0819,9.9388 M13.6754,9.9577 C13.0483,9.6252 10.5626,8.3572 8.3373,9.4706 C8.2193,9.5296 8.1192,9.484 8.0953,9.468 C7.9939,9.4001 8.0001,9.2879 8.0001,9.2879 L8.0001,4 C8.0001,3.6876 8.2603,3.2777 8.5,3 C9.9463,1.5519 12.7991,3.1071 13.3273,3.3232 C13.3733,3.342 13.3977,3.374 13.417,3.396 C13.4476,3.4312 13.4558,3.5 13.4558,3.5 L13.9993,9.7479 C13.9993,9.7479 14.0129,9.867 13.9181,9.9388 C13.8994,9.9531 13.8013,10.0244 13.6754,9.9577 M8.8647,12.6863 C8.8999,12.6778 8.9611,12.642 8.9826,12.6088 C9.0062,12.5724 9.0204,12.5471 9.0249,12.5 C9.0744,11.5621 10.6494,10.6881 13.6726,12.4702 C13.7501,12.5143 13.8392,12.5098 13.9151,12.4547 C14.0014,12.392 14,12.2859 14,12.2859 L14,11.7317 C14,11.7317 14.0003,11.6553 13.9728,11.6133 C13.9523,11.5821 13.9252,11.549 13.8802,11.5275 C11.8548,10.213 9.2944,9.6303 7.9948,11.3683 C7.9767,11.4106 7.9595,11.4296 7.922,11.4588 C7.8654,11.5028 7.7964,11.5 7.7964,11.5 L7.2109,11.5 C7.2109,11.5 7.1419,11.5028 7.0853,11.4588 C7.0478,11.4296 7.0306,11.4106 7.0125,11.3683 C5.7129,9.6303 3.1525,10.1855 1.1271,11.5 C1.0821,11.5215 1.055,11.5546 1.0345,11.5858 C1.007,11.6278 1.0073,11.7042 1.0073,11.7042 L1.0073,12.2584 C1.0073,12.2584 1.0059,12.3645 1.0922,12.4272 C1.1681,12.4823 1.2572,12.4868 1.3347,12.4427 C4.3579,10.6606 5.9329,11.5621 5.9824,12.5 C5.9869,12.5471 6.0011,12.5724 6.0247,12.6088 C6.0462,12.642 6.1074,12.6778 6.1426,12.6863 C6.8645,12.8656 7.9112,12.9363 8.8647,12.6863 "/>
</g>

<g fill="none" stroke="#000000" stroke-opacity="1" stroke-width="1" stroke-linecap="square" stroke-linejoin="bevel" transform="matrix(1.33333,0,0,1.33333,16,16)"
font-family="MS Shell Dlg 2" font-size="8.25" font-weight="400" font-style="normal" 
>
</g>

<g fill="none" stroke="#000000" stroke-opacity="1" stroke-width="1" stroke-linecap="square" stroke-linejoin="bevel" transform="matrix(1,0,0,1,16,16)"
font-family="MS Shell Dlg 2" font-size="8.25" font-weight="400" font-style="normal" 
>
</g>

<g fill="none" stroke="#000000" stroke-opacity="1" stroke-width="1" stroke-linecap="square" stroke-linejoin="bevel" transform="matrix(1,0,0,1,0,0)"
font-family="MS Shell Dlg 2" font-size="8.25" font-weight="400" font-style="normal" 
>
</g>
</g>
</svg>
