<?xml version="1.0" encoding="UTF-8" standalone="no"?>
<svg width="11.2889mm" height="11.2889mm"
 viewBox="0 0 32 32"
 xmlns="http://www.w3.org/2000/svg" xmlns:xlink="http://www.w3.org/1999/xlink"  version="1.2" baseProfile="tiny">
<title>Qt SVG Document</title>
<desc>Generated with Qt</desc>
<defs>
</defs>
<g fill="none" stroke="black" stroke-width="1" fill-rule="evenodd" stroke-linecap="square" stroke-linejoin="bevel" >

<g fill="none" stroke="#000000" stroke-opacity="1" stroke-width="1" stroke-linecap="square" stroke-linejoin="bevel" transform="matrix(1,0,0,1,16,16)"
font-family="MS Shell Dlg 2" font-size="8.25" font-weight="400" font-style="normal" 
>
</g>

<g fill="none" stroke="#000000" stroke-opacity="1" stroke-width="1" stroke-linecap="square" stroke-linejoin="bevel" transform="matrix(1.33333,0,0,1.33333,16,16)"
font-family="MS Shell Dlg 2" font-size="8.25" font-weight="400" font-style="normal" 
>
</g>

<g fill="#d73374" fill-opacity="1" stroke="none" transform="matrix(0.850394,0,0,0.850394,9.62205,9.62205)"
font-family="MS Shell Dlg 2" font-size="8.25" font-weight="400" font-style="normal" 
>
<path vector-effect="none" fill-rule="nonzero" d="M13.91,7.94 C13.8919,8.25631 13.8485,8.57066 13.78,8.88 C13.1353,8.2776 12.4038,7.77535 11.61,7.39 C11.16,7.16402 10.6917,6.97668 10.21,6.83 C9.61769,6.64822 9.00749,6.53087 8.39,6.48 C8.36417,6.47179 8.33705,6.4684 8.31,6.47 C7.95328,5.88437 7.68061,5.25151 7.5,4.59 C7.49,4.58 7.49,4.58 7.5,4.57 C8.01037,4.56988 8.5195,4.62012 9.02,4.72 C9.55755,4.82591 10.081,4.99369 10.58,5.22 C11.0755,5.4244 11.5454,5.68618 11.98,6 C12.7381,6.52135 13.3926,7.17922 13.91,7.94 M12.04,2.94 C11.5054,2.40807 10.8785,1.97774 10.19,1.67 C9.87928,1.51039 9.55016,1.38949 9.21,1.31 C8.70655,1.1616 8.18485,1.08419 7.66,1.08 C7.55375,1.0667 7.44625,1.0667 7.34,1.08 C7.25122,1.54807 7.20768,2.02359 7.21,2.5 C7.21,2.7 7.22,2.89 7.23,3.08 C7.31641,3.07172 7.40321,3.06838 7.49,3.07 C7.58344,3.06838 7.67691,3.07172 7.77,3.08 C8.27048,3.08822 8.76919,3.14177 9.26,3.24 C9.71893,3.32805 10.1703,3.45176 10.61,3.61 C11.1412,3.79389 11.6536,4.02829 12.14,4.31 C12.6295,4.59413 13.0944,4.91859 13.53,5.28 C13.2087,4.40129 12.7003,3.60287 12.04,2.94 M4.01,8.76 C3.76711,8.32061 3.55978,7.86248 3.39,7.39 C3.22918,6.93065 3.10545,6.45913 3.02,5.98 C2.91578,5.42939 2.86222,4.87038 2.86,4.31 L2.86,4.28 C2.85773,3.83139 2.89117,3.38331 2.96,2.94 C2.2926,3.60494 1.78336,4.41153 1.47,5.3 C1.20491,6.00316 1.06939,6.74853 1.07,7.5 C1.07,7.65 1.08,7.8 1.09,7.94 C1.10806,8.25631 1.15153,8.57066 1.22,8.88 C1.30973,9.30418 1.44727,9.71682 1.63,10.11 C1.85,10.06 2.07,10 2.28,9.94 C2.94907,9.73097 3.58785,9.43512 4.18,9.06 C4.12,8.96 4.06,8.86 4.01,8.76 M6.61,6.48 C6.33948,5.91679 6.12834,5.32694 5.98,4.72 C5.85958,4.23408 5.77931,3.73908 5.74,3.24 C5.72,2.99 5.71,2.75 5.71,2.5 C5.71139,2.10204 5.73811,1.70457 5.79,1.31 C5.44984,1.38949 5.12072,1.51039 4.81,1.67 C4.58693,2.29585 4.44576,2.94793 4.39,3.61 C4.37,3.83 4.36,4.05 4.36,4.28 C4.36008,4.59096 4.38012,4.9016 4.42,5.21 C4.4816,5.76553 4.60572,6.31232 4.79,6.84 C4.93947,7.28688 5.13731,7.71609 5.38,8.12 C5.86781,7.65228 6.29453,7.12477 6.65,6.55 C6.633,6.52896 6.61949,6.50533 6.61,6.48 M12.7,9.93 C12.7,9.93 12.7,9.92 12.69,9.93 C12.1835,9.46183 11.6106,9.07096 10.99,8.77 C10.93,8.87 10.88,8.96 10.82,9.06 C10.5621,9.49108 10.2677,9.89925 9.94,10.28 C9.61749,10.6659 9.26289,11.0239 8.88,11.35 C8.44734,11.7136 7.98582,12.0413 7.5,12.33 C6.67935,12.8072 5.78832,13.1515 4.86,13.35 C6.53506,14.1233 8.46494,14.1233 10.14,13.35 C11.0977,12.9419 11.932,12.2903 12.56,11.46 C12.8193,11.1455 13.0377,10.7994 13.21,10.43 C13.05,10.2534 12.8797,10.0864 12.7,9.93 M7.53,7.93 C7.52,7.94 7.51,7.96 7.5,7.97 C7.13182,8.4778 6.71301,8.94687 6.25,9.37 C5.87766,9.70389 5.47978,10.0082 5.06,10.28 C4.25332,10.8071 3.36937,11.2053 2.44,11.46 C2.60299,11.6748 2.78004,11.8786 2.97,12.07 C4.05898,12.0544 5.13239,11.8091 6.12,11.35 C6.60843,11.1276 7.07117,10.8527 7.5,10.53 C7.95863,10.1912 8.37791,9.80209 8.75,9.37 C9.05779,9.01244 9.33227,8.62751 9.57,8.22 C8.90701,8.02791 8.22025,7.93028 7.53,7.93 "/>
</g>

<g fill="none" stroke="#000000" stroke-opacity="1" stroke-width="1" stroke-linecap="square" stroke-linejoin="bevel" transform="matrix(1.33333,0,0,1.33333,16,16)"
font-family="MS Shell Dlg 2" font-size="8.25" font-weight="400" font-style="normal" 
>
</g>

<g fill="none" stroke="#000000" stroke-opacity="1" stroke-width="1" stroke-linecap="square" stroke-linejoin="bevel" transform="matrix(1,0,0,1,16,16)"
font-family="MS Shell Dlg 2" font-size="8.25" font-weight="400" font-style="normal" 
>
</g>

<g fill="none" stroke="#000000" stroke-opacity="1" stroke-width="1" stroke-linecap="square" stroke-linejoin="bevel" transform="matrix(1,0,0,1,0,0)"
font-family="MS Shell Dlg 2" font-size="8.25" font-weight="400" font-style="normal" 
>
</g>
</g>
</svg>
