<?xml version="1.0" encoding="UTF-8" standalone="no"?>
<svg width="11.2889mm" height="11.2889mm"
 viewBox="0 0 32 32"
 xmlns="http://www.w3.org/2000/svg" xmlns:xlink="http://www.w3.org/1999/xlink"  version="1.2" baseProfile="tiny">
<title>Qt SVG Document</title>
<desc>Generated with Qt</desc>
<defs>
</defs>
<g fill="none" stroke="black" stroke-width="1" fill-rule="evenodd" stroke-linecap="square" stroke-linejoin="bevel" >

<g fill="none" stroke="#000000" stroke-opacity="1" stroke-width="1" stroke-linecap="square" stroke-linejoin="bevel" transform="matrix(1,0,0,1,16,16)"
font-family="MS Shell Dlg 2" font-size="8.25" font-weight="400" font-style="normal" 
>
</g>

<g fill="none" stroke="#000000" stroke-opacity="1" stroke-width="1" stroke-linecap="square" stroke-linejoin="bevel" transform="matrix(1.33333,0,0,1.33333,16,16)"
font-family="MS Shell Dlg 2" font-size="8.25" font-weight="400" font-style="normal" 
>
</g>

<g fill="#000094" fill-opacity="1" stroke="none" transform="matrix(0.340157,0,0,0.340157,7.49606,7.49606)"
font-family="MS Shell Dlg 2" font-size="8.25" font-weight="400" font-style="normal" 
>
<path vector-effect="none" fill-rule="nonzero" d="M43.63,9.8 C46.05,9.8 48,7.83 48,5.4 C48,2.97 46.05,1 43.63,1 C41.23,1 39.28,2.97 39.28,5.4 C39.28,7.83 41.23,9.8 43.63,9.8 M31,48 L43,48 C43,48 44,47.9 44,47 L44,46 L45,46 C45,46 45.41,48.71 43.14,49 L31,49 L31,48 M3,39 L11,47 C11,47 11.66,47.25 12.29,46.62 L12.92,45.98 L14,47 C14,47 12.21,49.62 10.4,48.21 L2,39.73 L3,39 M33.91,35.75 L33.92,43.72 C33.92,45.22 34.98,46.43 36.46,46.43 C37.82,46.43 39,44.85 39,43.72 L39,32.63 C39,31.86 38.83,31.16 38.31,30.66 L31.93,24.17 L40.52,15.54 C42.13,13.52 41.3,11.09 41.3,11.09 C40.42,8.4 37.4,8.31 37.4,8.31 L15.37,8.3 C14.2,8.3 13.24,9.26 13.24,10.45 C13.24,11.65 14.2,12.6 15.37,12.6 L30.58,12.62 L24.18,19.06 C23.26,20.01 22.8,21.07 22.8,22.46 C22.8,23.8 23.33,24.99 24.21,25.87 L33.91,35.75 M22.85,27.08 C22.64,26.88 22.46,26.67 22.29,26.44 L9.58,39.3 C8.62,40.08 8.31,41.45 8.88,42.6 C9.54,43.91 11.14,44.43 12.44,43.76 C12.62,43.67 12.78,43.56 12.93,43.43 L25.98,30.24 L22.85,27.09 L22.85,27.08"/>
</g>

<g fill="none" stroke="#ffffff" stroke-opacity="1" stroke-width="0.833333" stroke-linecap="butt" stroke-linejoin="miter" stroke-miterlimit="4" transform="matrix(0.340157,0,0,0.340157,7.49606,7.49606)"
font-family="MS Shell Dlg 2" font-size="8.25" font-weight="400" font-style="normal" 
>
<path vector-effect="none" fill-rule="nonzero" d="M43.63,9.8 C46.05,9.8 48,7.83 48,5.4 C48,2.97 46.05,1 43.63,1 C41.23,1 39.28,2.97 39.28,5.4 C39.28,7.83 41.23,9.8 43.63,9.8 M31,48 L43,48 C43,48 44,47.9 44,47 L44,46 L45,46 C45,46 45.41,48.71 43.14,49 L31,49 L31,48 M3,39 L11,47 C11,47 11.66,47.25 12.29,46.62 L12.92,45.98 L14,47 C14,47 12.21,49.62 10.4,48.21 L2,39.73 L3,39 M33.91,35.75 L33.92,43.72 C33.92,45.22 34.98,46.43 36.46,46.43 C37.82,46.43 39,44.85 39,43.72 L39,32.63 C39,31.86 38.83,31.16 38.31,30.66 L31.93,24.17 L40.52,15.54 C42.13,13.52 41.3,11.09 41.3,11.09 C40.42,8.4 37.4,8.31 37.4,8.31 L15.37,8.3 C14.2,8.3 13.24,9.26 13.24,10.45 C13.24,11.65 14.2,12.6 15.37,12.6 L30.58,12.62 L24.18,19.06 C23.26,20.01 22.8,21.07 22.8,22.46 C22.8,23.8 23.33,24.99 24.21,25.87 L33.91,35.75 M22.85,27.08 C22.64,26.88 22.46,26.67 22.29,26.44 L9.58,39.3 C8.62,40.08 8.31,41.45 8.88,42.6 C9.54,43.91 11.14,44.43 12.44,43.76 C12.62,43.67 12.78,43.56 12.93,43.43 L25.98,30.24 L22.85,27.09 L22.85,27.08"/>
</g>

<g fill="none" stroke="#000000" stroke-opacity="1" stroke-width="1" stroke-linecap="square" stroke-linejoin="bevel" transform="matrix(1.33333,0,0,1.33333,16,16)"
font-family="MS Shell Dlg 2" font-size="8.25" font-weight="400" font-style="normal" 
>
</g>

<g fill="none" stroke="#000000" stroke-opacity="1" stroke-width="1" stroke-linecap="square" stroke-linejoin="bevel" transform="matrix(1,0,0,1,16,16)"
font-family="MS Shell Dlg 2" font-size="8.25" font-weight="400" font-style="normal" 
>
</g>

<g fill="none" stroke="#000000" stroke-opacity="1" stroke-width="1" stroke-linecap="square" stroke-linejoin="bevel" transform="matrix(1,0,0,1,0,0)"
font-family="MS Shell Dlg 2" font-size="8.25" font-weight="400" font-style="normal" 
>
</g>
</g>
</svg>
