<?xml version="1.0" encoding="UTF-8" standalone="no"?>
<svg width="11.2889mm" height="11.2889mm"
 viewBox="0 0 32 32"
 xmlns="http://www.w3.org/2000/svg" xmlns:xlink="http://www.w3.org/1999/xlink"  version="1.2" baseProfile="tiny">
<title>Qt SVG Document</title>
<desc>Generated with Qt</desc>
<defs>
</defs>
<g fill="none" stroke="black" stroke-width="1" fill-rule="evenodd" stroke-linecap="square" stroke-linejoin="bevel" >

<g fill="none" stroke="#000000" stroke-opacity="1" stroke-width="1" stroke-linecap="square" stroke-linejoin="bevel" transform="matrix(1,0,0,1,16,16)"
font-family="MS Shell Dlg 2" font-size="8.25" font-weight="400" font-style="normal" 
>
</g>

<g fill="none" stroke="#000000" stroke-opacity="1" stroke-width="1" stroke-linecap="square" stroke-linejoin="bevel" transform="matrix(1.33333,0,0,1.33333,16,16)"
font-family="MS Shell Dlg 2" font-size="8.25" font-weight="400" font-style="normal" 
>
</g>

<g fill="#006300" fill-opacity="1" stroke="none" transform="matrix(0.944882,0,0,0.944882,8.91339,8.91339)"
font-family="MS Shell Dlg 2" font-size="8.25" font-weight="400" font-style="normal" 
>
<path vector-effect="none" fill-rule="nonzero" d="M7.5,1 L0,4.5 L2,5.4 L2,7.1 C1.4,7.3 1,7.9 1,8.5 C1,9.1 1.4,9.7 2,9.9 L2,10 L1.1,12.1 C0.8,13 1,14 2.5,14 C4,14 4.2,13 3.9,12.1 L3,10 C3.6,9.7 4,9.2 4,8.5 C4,7.8 3.6,7.3 3,7.1 L3,5.9 L7.5,8 L15,4.5 L7.5,1 M11.9,7.5 L7.4,9.5 L5,8.4 L5,8.5 C5,9.2 4.7,9.8 4.2,10.3 L4.8,11.7 L4.8,11.8 C4.9,12.2 5,12.6 4.9,13 C5.6,13.3 6.4,13.5 7.4,13.5 C10.7,13.5 11.9,11.5 11.9,10.5 L11.9,7.5"/>
</g>

<g fill="none" stroke="#000000" stroke-opacity="1" stroke-width="0.6" stroke-linecap="butt" stroke-linejoin="miter" stroke-miterlimit="4" transform="matrix(0.944882,0,0,0.944882,8.91339,8.91339)"
font-family="MS Shell Dlg 2" font-size="8.25" font-weight="400" font-style="normal" 
>
<path vector-effect="none" fill-rule="nonzero" d="M7.5,1 L0,4.5 L2,5.4 L2,7.1 C1.4,7.3 1,7.9 1,8.5 C1,9.1 1.4,9.7 2,9.9 L2,10 L1.1,12.1 C0.8,13 1,14 2.5,14 C4,14 4.2,13 3.9,12.1 L3,10 C3.6,9.7 4,9.2 4,8.5 C4,7.8 3.6,7.3 3,7.1 L3,5.9 L7.5,8 L15,4.5 L7.5,1 M11.9,7.5 L7.4,9.5 L5,8.4 L5,8.5 C5,9.2 4.7,9.8 4.2,10.3 L4.8,11.7 L4.8,11.8 C4.9,12.2 5,12.6 4.9,13 C5.6,13.3 6.4,13.5 7.4,13.5 C10.7,13.5 11.9,11.5 11.9,10.5 L11.9,7.5"/>
</g>

<g fill="none" stroke="#000000" stroke-opacity="1" stroke-width="1" stroke-linecap="square" stroke-linejoin="bevel" transform="matrix(1.33333,0,0,1.33333,16,16)"
font-family="MS Shell Dlg 2" font-size="8.25" font-weight="400" font-style="normal" 
>
</g>

<g fill="none" stroke="#000000" stroke-opacity="1" stroke-width="1" stroke-linecap="square" stroke-linejoin="bevel" transform="matrix(1,0,0,1,16,16)"
font-family="MS Shell Dlg 2" font-size="8.25" font-weight="400" font-style="normal" 
>
</g>

<g fill="none" stroke="#000000" stroke-opacity="1" stroke-width="1" stroke-linecap="square" stroke-linejoin="bevel" transform="matrix(1,0,0,1,0,0)"
font-family="MS Shell Dlg 2" font-size="8.25" font-weight="400" font-style="normal" 
>
</g>
</g>
</svg>
