<?xml version="1.0" encoding="UTF-8" standalone="no"?>
<svg width="11.2889mm" height="11.2889mm"
 viewBox="0 0 32 32"
 xmlns="http://www.w3.org/2000/svg" xmlns:xlink="http://www.w3.org/1999/xlink"  version="1.2" baseProfile="tiny">
<title>Qt SVG Document</title>
<desc>Generated with Qt</desc>
<defs>
</defs>
<g fill="none" stroke="black" stroke-width="1" fill-rule="evenodd" stroke-linecap="square" stroke-linejoin="bevel" >

<g fill="none" stroke="#000000" stroke-opacity="1" stroke-width="1" stroke-linecap="square" stroke-linejoin="bevel" transform="matrix(1,0,0,1,16,16)"
font-family="MS Shell Dlg 2" font-size="8.25" font-weight="400" font-style="normal" 
>
</g>

<g fill="none" stroke="#000000" stroke-opacity="1" stroke-width="1" stroke-linecap="square" stroke-linejoin="bevel" transform="matrix(1.33333,0,0,1.33333,16,16)"
font-family="MS Shell Dlg 2" font-size="8.25" font-weight="400" font-style="normal" 
>
</g>

<g fill="#ffffff" fill-opacity="1" stroke="none" transform="matrix(0.944882,0,0,0.944882,8.91339,8.91339)"
font-family="MS Shell Dlg 2" font-size="8.25" font-weight="400" font-style="normal" 
>
<path vector-effect="none" fill-rule="nonzero" d="M5.75,12.5 L5.5,13 L9.5,13 L9.25,12.5 L10.75,12.5 L12,15 L10.5,15 L10,14 L5,14 L4.5,15 L3,15 L4.25,12.5 L5.75,12.5 M13,3 L13,10 C13,11.1 12.1,12 11,12 L4,12 C2.9,12 2,11.1 2,10 L2,3 C2,1.9 2.9,1 4,1 L11,1 C12.1,1 13,1.9 13,3 M9,9.5 C9,10.05 9.45,10.5 10,10.5 C10.55,10.5 11,10.05 11,9.5 C11,8.95 10.55,8.5 10,8.5 C9.45,8.5 9,8.95 9,9.5 M6,9.5 C6,8.95 5.55,8.5 5,8.5 C4.45,8.5 4,8.95 4,9.5 C4,10.05 4.45,10.5 5,10.5 C5.55,10.5 6,10.05 6,9.5 M3,3.5 L3.01,6.5 C3.01,6.78 3.24,7 3.51,7 L6.51,7 C6.78,7 7.01,6.78 7.01,6.5 L6.99,3.5 C6.99,3.22 6.77,3 6.49,3 L3.5,3 C3.22,3 3,3.22 3,3.5 M8,3.5 L8.01,6.5 C8.01,6.78 8.24,7 8.51,7 L11.51,7 C11.78,7 12.01,6.78 12.01,6.5 L11.99,3.5 C11.99,3.22 11.77,3 11.49,3 L8.5,3 C8.22,3 8,3.22 8,3.5 "/>
</g>

<g fill="none" stroke="#dd1111" stroke-opacity="1" stroke-width="0.9" stroke-linecap="butt" stroke-linejoin="miter" stroke-miterlimit="4" transform="matrix(0.944882,0,0,0.944882,8.91339,8.91339)"
font-family="MS Shell Dlg 2" font-size="8.25" font-weight="400" font-style="normal" 
>
<path vector-effect="none" fill-rule="nonzero" d="M5.75,12.5 L5.5,13 L9.5,13 L9.25,12.5 L10.75,12.5 L12,15 L10.5,15 L10,14 L5,14 L4.5,15 L3,15 L4.25,12.5 L5.75,12.5 M13,3 L13,10 C13,11.1 12.1,12 11,12 L4,12 C2.9,12 2,11.1 2,10 L2,3 C2,1.9 2.9,1 4,1 L11,1 C12.1,1 13,1.9 13,3 M9,9.5 C9,10.05 9.45,10.5 10,10.5 C10.55,10.5 11,10.05 11,9.5 C11,8.95 10.55,8.5 10,8.5 C9.45,8.5 9,8.95 9,9.5 M6,9.5 C6,8.95 5.55,8.5 5,8.5 C4.45,8.5 4,8.95 4,9.5 C4,10.05 4.45,10.5 5,10.5 C5.55,10.5 6,10.05 6,9.5 M3,3.5 L3.01,6.5 C3.01,6.78 3.24,7 3.51,7 L6.51,7 C6.78,7 7.01,6.78 7.01,6.5 L6.99,3.5 C6.99,3.22 6.77,3 6.49,3 L3.5,3 C3.22,3 3,3.22 3,3.5 M8,3.5 L8.01,6.5 C8.01,6.78 8.24,7 8.51,7 L11.51,7 C11.78,7 12.01,6.78 12.01,6.5 L11.99,3.5 C11.99,3.22 11.77,3 11.49,3 L8.5,3 C8.22,3 8,3.22 8,3.5 "/>
</g>

<g fill="none" stroke="#000000" stroke-opacity="1" stroke-width="1" stroke-linecap="square" stroke-linejoin="bevel" transform="matrix(1.33333,0,0,1.33333,16,16)"
font-family="MS Shell Dlg 2" font-size="8.25" font-weight="400" font-style="normal" 
>
</g>

<g fill="none" stroke="#000000" stroke-opacity="1" stroke-width="1" stroke-linecap="square" stroke-linejoin="bevel" transform="matrix(1,0,0,1,16,16)"
font-family="MS Shell Dlg 2" font-size="8.25" font-weight="400" font-style="normal" 
>
</g>

<g fill="none" stroke="#000000" stroke-opacity="1" stroke-width="1" stroke-linecap="square" stroke-linejoin="bevel" transform="matrix(1,0,0,1,0,0)"
font-family="MS Shell Dlg 2" font-size="8.25" font-weight="400" font-style="normal" 
>
</g>
</g>
</svg>
