<?xml version="1.0" encoding="UTF-8" standalone="no"?>
<svg width="11.2889mm" height="11.2889mm"
 viewBox="0 0 32 32"
 xmlns="http://www.w3.org/2000/svg" xmlns:xlink="http://www.w3.org/1999/xlink"  version="1.2" baseProfile="tiny">
<title>Qt SVG Document</title>
<desc>Generated with Qt</desc>
<defs>
</defs>
<g fill="none" stroke="black" stroke-width="1" fill-rule="evenodd" stroke-linecap="square" stroke-linejoin="bevel" >

<g fill="none" stroke="#000000" stroke-opacity="1" stroke-width="1" stroke-linecap="square" stroke-linejoin="bevel" transform="matrix(1,0,0,1,16,16)"
font-family="MS Shell Dlg 2" font-size="8.25" font-weight="400" font-style="normal" 
>
</g>

<g fill="none" stroke="#000000" stroke-opacity="1" stroke-width="1" stroke-linecap="square" stroke-linejoin="bevel" transform="matrix(1.33333,0,0,1.33333,16,16)"
font-family="MS Shell Dlg 2" font-size="8.25" font-weight="400" font-style="normal" 
>
</g>

<g fill="#3146bb" fill-opacity="1" stroke="none" transform="matrix(1.13386,0,0,1.13386,7.49606,7.49606)"
font-family="MS Shell Dlg 2" font-size="8.25" font-weight="400" font-style="normal" 
>
<path vector-effect="none" fill-rule="nonzero" d="M10.1113,2 C9.9989,2 9.6758,2.1465 9.6758,2.1465 L6.3535,3.8262 C5.9111,4.0024 5.7358,4.7081 6.002,5.0605 L6.9727,6.4687 L3.002,8.498 L5,9.998 L7.502,8.498 L10.002,9.998 L11.004,8.996 L8.004,4.996 L10.5606,3.4667 C11.0892,3.2005 11.004,2.7622 11.004,2.496 C10.9999,2.2861 10.6437,2 10.1113,2 M12.252,5 C11.2847,5 10.5,5.7827 10.5,6.75 C10.5,7.7173 11.2847,8.502 12.252,8.502 C13.2193,8.502 14.002,7.7173 14.002,6.75 C14.002,5.7827 13.2192,5 12.252,5 M2.5,10 L0,11.5 L0,13 L2.5,11.5 L5,13 L7.502,11.5 L10.002,13 L12,11.5 L15,13 L15,11.5 L12,10 L10.002,11.5 L7.502,10 L5,11.5 L2.5,10"/>
</g>

<g fill="none" stroke="#000000" stroke-opacity="1" stroke-width="1" stroke-linecap="square" stroke-linejoin="bevel" transform="matrix(1.33333,0,0,1.33333,16,16)"
font-family="MS Shell Dlg 2" font-size="8.25" font-weight="400" font-style="normal" 
>
</g>

<g fill="none" stroke="#000000" stroke-opacity="1" stroke-width="1" stroke-linecap="square" stroke-linejoin="bevel" transform="matrix(1,0,0,1,16,16)"
font-family="MS Shell Dlg 2" font-size="8.25" font-weight="400" font-style="normal" 
>
</g>

<g fill="none" stroke="#000000" stroke-opacity="1" stroke-width="1" stroke-linecap="square" stroke-linejoin="bevel" transform="matrix(1,0,0,1,0,0)"
font-family="MS Shell Dlg 2" font-size="8.25" font-weight="400" font-style="normal" 
>
</g>
</g>
</svg>
