<?xml version="1.0" encoding="UTF-8" standalone="no"?>
<svg width="11.2889mm" height="11.2889mm"
 viewBox="0 0 32 32"
 xmlns="http://www.w3.org/2000/svg" xmlns:xlink="http://www.w3.org/1999/xlink"  version="1.2" baseProfile="tiny">
<title>Qt SVG Document</title>
<desc>Generated with Qt</desc>
<defs>
</defs>
<g fill="none" stroke="black" stroke-width="1" fill-rule="evenodd" stroke-linecap="square" stroke-linejoin="bevel" >

<g fill="none" stroke="#000000" stroke-opacity="1" stroke-width="1" stroke-linecap="square" stroke-linejoin="bevel" transform="matrix(1,0,0,1,16,16)"
font-family="MS Shell Dlg 2" font-size="8.25" font-weight="400" font-style="normal" 
>
</g>

<g fill="none" stroke="#000000" stroke-opacity="1" stroke-width="1" stroke-linecap="square" stroke-linejoin="bevel" transform="matrix(1.33333,0,0,1.33333,16,16)"
font-family="MS Shell Dlg 2" font-size="8.25" font-weight="400" font-style="normal" 
>
</g>

<g fill="#fcf51f" fill-opacity="1" stroke="none" transform="matrix(1.13386,0,0,1.13386,7.49606,7.49606)"
font-family="MS Shell Dlg 2" font-size="8.25" font-weight="400" font-style="normal" 
>
<path vector-effect="none" fill-rule="nonzero" d="M5.75,12.5 L5.5,13 L9.5,13 L9.25,12.5 L10.75,12.5 L12,15 L10.5,15 L10,14 L5,14 L4.5,15 L3,15 L4.25,12.5 L5.75,12.5 M12.07,8.45 C10.43,10.82 8.9,12 7.5,12 C6.1,12 4.57,10.82 2.93,8.45 C2.37,7.64 2.24,6.59 2.6,5.66 C2.87,4.97 3,4.42 3,4 C3,3 4.35,0 7.5,0 C11.13,0 12,3 12,4 C12,4.42 12.13,4.97 12.4,5.66 C12.76,6.59 12.63,7.64 12.07,8.45 M5.04,2.76 L5.83,4.69 C5.91,4.88 6.09,5 6.29,5 L8.71,5 C8.91,5 9.09,4.88 9.17,4.69 L9.96,2.76 C10.03,2.59 10,2.4 9.89,2.26 C9.24,1.42 8.44,1 7.5,1 C6.56,1 5.76,1.42 5.11,2.26 C5,2.4 4.97,2.59 5.04,2.76 M7.5,11 C8.05,11 8.5,10.55 8.5,10 C8.5,9.45 8.05,9 7.5,9 C6.95,9 6.5,9.45 6.5,10 C6.5,10.55 6.95,11 7.5,11 "/>
</g>

<g fill="none" stroke="#3146bb" stroke-opacity="1" stroke-width="1.25" stroke-linecap="butt" stroke-linejoin="miter" stroke-miterlimit="4" transform="matrix(1.13386,0,0,1.13386,7.49606,7.49606)"
font-family="MS Shell Dlg 2" font-size="8.25" font-weight="400" font-style="normal" 
>
<path vector-effect="none" fill-rule="nonzero" d="M5.75,12.5 L5.5,13 L9.5,13 L9.25,12.5 L10.75,12.5 L12,15 L10.5,15 L10,14 L5,14 L4.5,15 L3,15 L4.25,12.5 L5.75,12.5 M12.07,8.45 C10.43,10.82 8.9,12 7.5,12 C6.1,12 4.57,10.82 2.93,8.45 C2.37,7.64 2.24,6.59 2.6,5.66 C2.87,4.97 3,4.42 3,4 C3,3 4.35,0 7.5,0 C11.13,0 12,3 12,4 C12,4.42 12.13,4.97 12.4,5.66 C12.76,6.59 12.63,7.64 12.07,8.45 M5.04,2.76 L5.83,4.69 C5.91,4.88 6.09,5 6.29,5 L8.71,5 C8.91,5 9.09,4.88 9.17,4.69 L9.96,2.76 C10.03,2.59 10,2.4 9.89,2.26 C9.24,1.42 8.44,1 7.5,1 C6.56,1 5.76,1.42 5.11,2.26 C5,2.4 4.97,2.59 5.04,2.76 M7.5,11 C8.05,11 8.5,10.55 8.5,10 C8.5,9.45 8.05,9 7.5,9 C6.95,9 6.5,9.45 6.5,10 C6.5,10.55 6.95,11 7.5,11 "/>
</g>

<g fill="none" stroke="#000000" stroke-opacity="1" stroke-width="1" stroke-linecap="square" stroke-linejoin="bevel" transform="matrix(1.33333,0,0,1.33333,16,16)"
font-family="MS Shell Dlg 2" font-size="8.25" font-weight="400" font-style="normal" 
>
</g>

<g fill="none" stroke="#000000" stroke-opacity="1" stroke-width="1" stroke-linecap="square" stroke-linejoin="bevel" transform="matrix(1,0,0,1,16,16)"
font-family="MS Shell Dlg 2" font-size="8.25" font-weight="400" font-style="normal" 
>
</g>

<g fill="none" stroke="#000000" stroke-opacity="1" stroke-width="1" stroke-linecap="square" stroke-linejoin="bevel" transform="matrix(1,0,0,1,0,0)"
font-family="MS Shell Dlg 2" font-size="8.25" font-weight="400" font-style="normal" 
>
</g>
</g>
</svg>
