<?xml version="1.0" encoding="UTF-8" standalone="no"?>
<svg width="11.2889mm" height="11.2889mm"
 viewBox="0 0 32 32"
 xmlns="http://www.w3.org/2000/svg" xmlns:xlink="http://www.w3.org/1999/xlink"  version="1.2" baseProfile="tiny">
<title>Qt SVG Document</title>
<desc>Generated with Qt</desc>
<defs>
</defs>
<g fill="none" stroke="black" stroke-width="1" fill-rule="evenodd" stroke-linecap="square" stroke-linejoin="bevel" >

<g fill="none" stroke="#000000" stroke-opacity="1" stroke-width="1" stroke-linecap="square" stroke-linejoin="bevel" transform="matrix(1,0,0,1,16,16)"
font-family="MS Shell Dlg 2" font-size="8.25" font-weight="400" font-style="normal" 
>
</g>

<g fill="none" stroke="#000000" stroke-opacity="1" stroke-width="1" stroke-linecap="square" stroke-linejoin="bevel" transform="matrix(1.33333,0,0,1.33333,16,16)"
font-family="MS Shell Dlg 2" font-size="8.25" font-weight="400" font-style="normal" 
>
</g>

<g fill="#f2bf26" fill-opacity="1" stroke="none" transform="matrix(0.944882,0,0,0.944882,8.91339,8.91339)"
font-family="MS Shell Dlg 2" font-size="8.25" font-weight="400" font-style="normal" 
>
<path vector-effect="none" fill-rule="nonzero" d="M2,1 C2,1 1,1 1,2 L1,7.1582 C1,8.8885 1.354,11 4.5,11 L5,11 L5,8 L2.5,9 C2.5,9 2.5,6.5 5,6.5 L5,5 C5,4.2922 5.0868,3.6791 5.5,3.2246 C5.8815,2.805 6.5046,1.9674 8.1562,2.7539 L9,3.3027 L9,2 C9,2 9,1 8,1 C7.2922,1 6.0224,2 5,2 C3.9776,2 2.7865,1 2,1 M3,3 C3.5523,3 4,3.4477 4,4 C4,4.5523 3.5523,5 3,5 C2.4477,5 2,4.5523 2,4 C2,3.4477 2.4477,3 3,3 M7,4 C7,4 6,4 6,5 L6,10 C6,12 7,14 10,14 C13,14 14,12 14,10 L14,5 C14,4 13,4 13,4 C12.2922,4 11.0224,5 10,5 C8.9776,5 7.7865,4 7,4 M8,6 C8.5523,6 9,6.4477 9,7 C9,7.5523 8.5523,8 8,8 C7.4477,8 7,7.5523 7,7 C7,6.4477 7.4477,6 8,6 M12,6 C12.5523,6 13,6.4477 13,7 C13,7.5523 12.5523,8 12,8 C11.4477,8 11,7.5523 11,7 C11,6.4477 11.4477,6 12,6 M7.5,10 L10,10 L12.5,10 C12.5,10 12.5,12.5 10,12.5 C7.5,12.5 7.5,10 7.5,10 "/>
</g>

<g fill="none" stroke="#000000" stroke-opacity="1" stroke-width="0.6" stroke-linecap="butt" stroke-linejoin="miter" stroke-miterlimit="4" transform="matrix(0.944882,0,0,0.944882,8.91339,8.91339)"
font-family="MS Shell Dlg 2" font-size="8.25" font-weight="400" font-style="normal" 
>
<path vector-effect="none" fill-rule="nonzero" d="M2,1 C2,1 1,1 1,2 L1,7.1582 C1,8.8885 1.354,11 4.5,11 L5,11 L5,8 L2.5,9 C2.5,9 2.5,6.5 5,6.5 L5,5 C5,4.2922 5.0868,3.6791 5.5,3.2246 C5.8815,2.805 6.5046,1.9674 8.1562,2.7539 L9,3.3027 L9,2 C9,2 9,1 8,1 C7.2922,1 6.0224,2 5,2 C3.9776,2 2.7865,1 2,1 M3,3 C3.5523,3 4,3.4477 4,4 C4,4.5523 3.5523,5 3,5 C2.4477,5 2,4.5523 2,4 C2,3.4477 2.4477,3 3,3 M7,4 C7,4 6,4 6,5 L6,10 C6,12 7,14 10,14 C13,14 14,12 14,10 L14,5 C14,4 13,4 13,4 C12.2922,4 11.0224,5 10,5 C8.9776,5 7.7865,4 7,4 M8,6 C8.5523,6 9,6.4477 9,7 C9,7.5523 8.5523,8 8,8 C7.4477,8 7,7.5523 7,7 C7,6.4477 7.4477,6 8,6 M12,6 C12.5523,6 13,6.4477 13,7 C13,7.5523 12.5523,8 12,8 C11.4477,8 11,7.5523 11,7 C11,6.4477 11.4477,6 12,6 M7.5,10 L10,10 L12.5,10 C12.5,10 12.5,12.5 10,12.5 C7.5,12.5 7.5,10 7.5,10 "/>
</g>

<g fill="none" stroke="#000000" stroke-opacity="1" stroke-width="1" stroke-linecap="square" stroke-linejoin="bevel" transform="matrix(1.33333,0,0,1.33333,16,16)"
font-family="MS Shell Dlg 2" font-size="8.25" font-weight="400" font-style="normal" 
>
</g>

<g fill="none" stroke="#000000" stroke-opacity="1" stroke-width="1" stroke-linecap="square" stroke-linejoin="bevel" transform="matrix(1,0,0,1,16,16)"
font-family="MS Shell Dlg 2" font-size="8.25" font-weight="400" font-style="normal" 
>
</g>

<g fill="none" stroke="#000000" stroke-opacity="1" stroke-width="1" stroke-linecap="square" stroke-linejoin="bevel" transform="matrix(1,0,0,1,0,0)"
font-family="MS Shell Dlg 2" font-size="8.25" font-weight="400" font-style="normal" 
>
</g>
</g>
</svg>
