<?xml version="1.0" encoding="UTF-8" standalone="no"?>
<svg width="20.2889mm" height="20.2889mm"
 viewBox="0 0 32 32"
 xmlns="http://www.w3.org/2000/svg" xmlns:xlink="http://www.w3.org/1999/xlink"  version="1.2" baseProfile="tiny">
<title>Qt SVG Document</title>
<desc>Generated with Qt</desc>
<defs>
</defs>
<g fill="none" stroke="black" stroke-width="1" fill-rule="evenodd" stroke-linecap="square" stroke-linejoin="bevel" >

<g fill="none" stroke="#000000" stroke-opacity="1" stroke-width="1" stroke-linecap="square" stroke-linejoin="bevel" transform="matrix(1,0,0,1,16,16)"
font-family="MS Shell Dlg 2" font-size="8.25" font-weight="400" font-style="normal" 
>
</g>

<g fill="none" stroke="#000000" stroke-opacity="1" stroke-width="1" stroke-linecap="square" stroke-linejoin="bevel" transform="matrix(1.33333,0,0,1.33333,16,16)"
font-family="MS Shell Dlg 2" font-size="8.25" font-weight="400" font-style="normal" 
>
</g>

<g fill="#3146bb" fill-opacity="1" stroke="none" transform="matrix(0.661417,0,0,0.661417,11.0394,11.0394)"
font-family="MS Shell Dlg 2" font-size="8.25" font-weight="400" font-style="normal" 
>
<path vector-effect="none" fill-rule="nonzero" d="M5.33,11 C6.0045,11.009 6.6562,11.245 7.18,11.67 L7.44,11.9 L7.49,11.9 L7.8,11.62 C8.7817,10.8085 10.179,10.7354 11.24,11.44 L13.5,7 L12,6 L12,2.45 C11.9534,1.65 11.3011,1.0195 10.5,1 L10,1 C10.0343,0.482 9.6421,0.0343 9.1241,2.22045e-16 C9.0828,-0.0027 9.0413,-0.0027 9,0 L6,0 C5.482,-0.0343 5.0343,0.3579 5,0.8759 C4.9973,0.9172 4.9973,0.9587 5,1 L4.5,1 C3.6989,1.0195 3.0466,1.65 3,2.45 L3,6 L1.5,7 L3.75,11.53 C4.2143,11.2041 4.7631,11.02 5.33,11 M4,2.45 C4.0105,2.1906 4.2293,1.9889 4.4886,1.9994 C4.4924,1.9996 4.4962,1.9998 4.5,2 L10.5,2 C10.759,1.9829 10.9829,2.1789 11,2.4379 C11.0014,2.4586 11.0014,2.4793 11,2.5 L11,5.5 L7.5,3.5 L4,5.45 C4,5.45 4,2.45 4,2.45 M14,13 L14,14 C13.7374,14.0194 13.4931,14.1416 13.32,14.34 C13.0483,14.6283 12.7022,14.8359 12.32,14.94 C11.7053,15.1215 11.0405,14.9825 10.55,14.57 L10.16,14.22 C9.8557,13.9174 9.3643,13.9174 9.06,14.22 C8.92,14.34 8.79,14.47 8.64,14.59 C7.9072,15.1756 6.8586,15.146 6.16,14.52 L5.77,14.17 C5.4836,13.9198 5.0564,13.9198 4.77,14.17 C4.58,14.32 4.41,14.49 4.22,14.64 C3.5157,15.1615 2.5468,15.1368 1.87,14.58 L1.56,14.31 C1.4153,14.1443 1.2172,14.0346 1,14 L1,13 C1.2585,12.968 1.5205,13.0169 1.75,13.14 C2.0282,13.3122 2.2924,13.5061 2.54,13.72 C2.7451,13.9435 3.0547,14.039 3.35,13.97 C3.4625,13.9367 3.5677,13.8824 3.66,13.81 C3.82,13.69 3.95,13.55 4.11,13.42 C4.8206,12.8312 5.8494,12.8312 6.56,13.42 C6.72,13.55 6.87,13.7 7.03,13.83 C7.3164,14.0802 7.7436,14.0802 8.03,13.83 C8.19,13.7 8.34,13.55 8.5,13.42 C9.2123,12.8257 10.2477,12.8257 10.96,13.42 C11.11,13.55 11.25,13.69 11.4,13.81 C11.6864,14.0602 12.1136,14.0602 12.4,13.81 L12.87,13.4 C13.1895,13.1408 13.5886,12.9995 14,13 "/>
</g>

<g fill="none" stroke="#000000" stroke-opacity="1" stroke-width="1" stroke-linecap="square" stroke-linejoin="bevel" transform="matrix(1.33333,0,0,1.33333,16,16)"
font-family="MS Shell Dlg 2" font-size="8.25" font-weight="400" font-style="normal" 
>
</g>

<g fill="none" stroke="#000000" stroke-opacity="1" stroke-width="1" stroke-linecap="square" stroke-linejoin="bevel" transform="matrix(1,0,0,1,16,16)"
font-family="MS Shell Dlg 2" font-size="8.25" font-weight="400" font-style="normal" 
>
</g>

<g fill="none" stroke="#000000" stroke-opacity="1" stroke-width="1" stroke-linecap="square" stroke-linejoin="bevel" transform="matrix(1,0,0,1,0,0)"
font-family="MS Shell Dlg 2" font-size="8.25" font-weight="400" font-style="normal" 
>
</g>
</g>
</svg>
